<svg version="1.0" xmlns="http://www.w3.org/2000/svg" width="1600" height="1600" viewBox="0 0 1200 1200"><path d="M583.5 22.5c-16.1 4-29.2 11.1-39 21.1-6.8 6.9-13.8 17.3-16.4 24.4-.7 1.9-1.6 4.4-2.1 5.5-4.2 11-4.1 39.4.1 47.7.5 1 .9 2.3.9 2.9 0 2.7 7.7 16.4 12.6 22.3 6.1 7.3 15.8 15.8 20.6 17.9 1.8.8 5.3 2.4 7.8 3.4 13.1 5.8 28.1 7.9 42 5.9 5.2-.8 12.2-2.4 15.5-3.6 3.3-1.2 8-2.9 10.5-3.7 12.6-4.5 27.6-19.9 34.9-35.8 2.6-5.7 3.5-8.5 6-18.1 1.4-5.5 1.4-24.1-.1-30.1-2.2-9.3-7.7-23.3-9-23.3-.5 0-.8-.5-.8-1.1 0-3.9-15.1-20-22-23.3-2.5-1.2-6.5-3.4-9-4.8-4.6-2.7-12.8-5.6-21.3-7.6-6.1-1.5-24.8-1.3-31.2.3zM574 218.6c-9.3.7-26.5 3.1-40.5 5.5-6.1 1.1-32.6 7.3-38 9-26.9 8.2-57.7 21.1-77.5 32.4-3.6 2.1-8.1 4.6-10 5.7-6.7 3.8-23.4 15-32.7 22-25 18.5-50.6 43.3-68.8 66.3-2.2 2.7-4.2 5.2-4.5 5.5-2.5 2.4-20.2 28.1-25 36.4-8.5 14.8-13.1 23.1-15.9 29C255 443.1 251 452 251 452.8c0 .5-.8 2.6-1.9 4.8-2.2 4.6-10.3 28.4-12.6 36.9-3.4 12.5-6.9 27.3-8 33.5-5.1 28.2-6.9 52.1-6.2 81.5.6 21.3 1 26.4 3.8 46 2.3 16 7.9 42.1 10.8 50.5.5 1.4 1.4 4.5 2.1 7 1.8 6.5 11.8 33.4 15.2 41 9.3 20.9 22.5 44.4 34.6 62 5.7 8.4 18.6 25.6 20.2 27 .3.3 4.9 5.4 10.1 11.5 9.9 11.3 22.9 24.2 33.3 33 3.3 2.7 6.4 5.4 7 6 7.8 7.1 43.7 32.3 52.1 36.7 1.7.8 4.8 2.5 7 3.8 17 9.8 46.1 22.5 65 28.4 5 1.6 9.9 3.2 11 3.7 4.7 1.8 35 8.8 47 10.7 48.6 7.9 90.8 6.8 141-3.5 6.6-1.3 13.4-2.8 15-3.3 1.7-.5 5-1.4 7.5-2.1 8.2-2.2 10.4-2.8 21-6.5 26.4-9 43.8-16.8 69.5-31.3 7-4 26.7-17.1 36.5-24.4 19.1-14.1 45.2-38.4 58.5-54.2 2.8-3.3 6-7.1 7.2-8.5 9.9-11.4 29.4-40 38.6-56.5 5.3-9.7 17.4-35.1 20.6-43.5 1.8-4.7 3.7-9.4 4.2-10.5 1.1-2.6 6.9-20 8-24.3.5-1.7 1.4-4.9 2-7 1.6-5.6 2.5-9.5 5.4-22.7 2.3-10.8 3.3-16.9 6.5-41.3 1.3-9.8 1.3-64.6 0-74.7-.6-4.4-1.6-11.8-2.2-16.5-1.3-10.2-6.8-36.8-9.8-47.5-.6-2.2-1.5-5.6-2-7.6-1.9-7.2-10.1-30.2-14.5-40.4-27.2-62.9-66.9-113.8-121.7-155.8-21.1-16.2-53.6-35.2-78.8-46-1.9-.8-5.6-2.4-8.2-3.6-2.6-1.1-5.1-2.1-5.5-2.1-.5 0-4.8-1.5-9.8-3.4-19.5-7.3-49.6-14.9-69.5-17.6-4.7-.6-11.2-1.6-14.5-2.2-5.9-.9-63.6-1.9-72.5-1.2zM692 249c1.9.5 5.2 1.3 7.3 1.9 2 .6 5.2 1.5 7 2 5.7 1.5 23.9 7.8 32.2 11.1 8.7 3.4 34.7 16 43.5 21.1 6.8 3.8 36.2 23.2 38.1 25.1.8.8 4.6 3.9 8.4 6.9 12.7 10.2 24.8 21.3 28.3 26.2l3.5 4.9-1.2 24.6c-.7 13.6-1.6 36.9-2 51.7l-.9 27-3 6.5c-4.6 10.1-9.7 14.5-28.2 24.2-5.8 3.1-13.4 7.2-16.8 9.2-3.5 2-6.5 3.6-6.7 3.6-.1 0-5.1 2.9-11 6.5s-10.9 6.5-11.1 6.5c-.2 0-4.3 2.5-8.9 5.5-4.7 3-8.8 5.5-9 5.5-.2 0-3.6 2-7.4 4.5-3.8 2.5-7.2 4.5-7.6 4.5-.3 0-2.7 1.4-5.3 3.2-7 4.9-12.2 4.5-23.5-1.5-13.5-7.2-30-15.9-53.1-27.7-11.6-5.9-24.9-12.7-29.6-15.2-4.7-2.5-14.5-7.6-21.9-11.4-7.4-3.8-15.1-8.5-17.1-10.5-4.5-4.4-4.8-5.5-9-32.4-.6-3.9-1.5-9.5-2-12.5s-1.7-10-2.5-15.5c-.9-5.5-2-12.5-2.5-15.5s-1.4-9.1-2-13.5c-.6-4.4-1.5-10-2-12.5s-1.4-8.1-2-12.5c-.6-4.4-1.6-10.2-2.1-12.8-.5-2.6-.9-7.4-.9-10.5 0-6.7 1.1-8.2 11-15.8 24.5-18.8 45.9-35 69.5-52.9 19.3-14.5 19.8-14.6 40.5-9.5zm-238.2 40.9c16 5.4 22.8 7.8 47.2 16.5 4.1 1.5 9.5 3.4 12 4.2 2.5.8 5.3 1.9 6.2 2.4 1 .6 2.6 1 3.6 1s2.2.4 2.7.8c.6.5 3.7 1.7 7 2.7 10.7 3.2 15.4 6.1 17.5 10.8 1 2.3 3.1 12.1 4.5 21.7 2.6 17.1 3.2 21 5.5 35.5 1.4 9.1 2.8 18 3.9 25.7.5 3.5 2.1 13.7 3.6 22.8 4.2 26.1 4.5 28.3 3.9 32-.5 3-8.3 11.2-54.3 57.2-38 38.1-54.4 53.9-56.5 54.4-1.6.4-5 .2-7.5-.4-2.5-.6-7.7-1.8-11.6-2.7-3.8-.9-9-2-11.5-2.6-2.5-.6-6.1-1.4-8-1.9-1.9-.4-5.7-1.3-8.5-1.9-2.7-.5-9.3-2-14.5-3.1-5.2-1.2-12.4-2.8-16-3.6-3.6-.8-8.4-1.9-10.7-2.4-7-1.6-12.5-2.8-18.8-4-3.3-.7-7.3-1.6-9-2-1.6-.4-5.8-1.4-9.3-2.1-8.2-1.6-12.1-4.3-15.1-10.4-2.4-5-3-6.2-4.9-12-.6-1.7-2.7-7.5-4.7-13s-4.6-12.5-5.7-15.5c-1.1-3-2.4-6.4-2.8-7.5-.5-1.1-2.5-6.5-4.5-12s-4-10.9-4.5-12c-.4-1.1-1.3-3.4-1.8-5-.6-1.7-2.7-7.4-4.6-12.7-2-5.3-3.6-11.5-3.6-13.7 0-4.1 4.8-14.4 12.6-27 2.1-3.5 4.4-7.3 5.1-8.5 2.5-4.3 11.1-16.1 20.7-28.4 12.7-16.3 39.4-43 56.1-56.2 12.2-9.6 37.9-27.2 43.5-29.7 9.8-4.4 12.2-4.2 32.8 2.6zm418.8 200c5.7 4 23.9 17.6 40.4 30.1 5.6 4.2 17.8 13.2 27.4 20.1 18.9 13.5 22 18 23.6 34.4 2 20.8.4 57.9-3.4 79.6-.8 4.6-1.8 10-2.1 11.9-.6 3.3-1.1 5.9-3.6 16.7-2.2 9.9-8.6 32-11.9 40.8-12 32.5-16.6 41.2-26.6 50.5-8.7 8.1-14.3 10.7-29.9 14-10.3 2.2-15.1 3.4-30 8-3.8 1.1-11.3 3.2-16.5 4.6-5.2 1.4-11.1 3-13 3.6-7.2 2-9.9 2.1-14.3 0-5.4-2.5-91.7-89.3-94.7-95.2-1.1-2.2-2-5-2-6.4 0-2.2 3.8-26.3 6-38.1.5-2.8 1.4-8.4 2-12.5.6-4.1 1.5-9.8 2-12.5.5-2.8 2.1-12 3.5-20.5s3-17.5 3.5-20c.4-2.5 1.3-7.9 2-12 .6-4.1 1.6-9.1 2.1-11.1s.9-4.9.9-6.5c0-4.5 2.9-11.6 5.8-14.7 1.5-1.6 12.6-8.7 24.7-15.9 12.1-7.2 25.2-15 29-17.3 3.9-2.3 9-5.3 11.5-6.7 2.5-1.4 9.7-5.6 16-9.3 6.3-3.7 12.9-7.6 14.5-8.5 1.7-1 6.4-3.8 10.6-6.3 12-7.1 13.5-7.2 22.5-.8zm-534.8 82.2c2.3.5 6.1 1.3 8.5 1.8 2.3.5 6.2 1.4 8.7 2 2.5.5 7.9 1.7 12 2.6 10.4 2.2 14.7 3.2 20.5 4.5 2.8.6 6.9 1.6 9.3 2.1 2.3.5 6.1 1.3 8.5 1.9 2.3.5 9.4 2.1 15.7 3.5 6.3 1.4 13.1 3 15 3.5 1.9.5 6 1.4 9 2.1 11.1 2.3 14.7 4.9 19.2 13.4 1.4 2.7 4.8 9.3 7.6 14.5 2.7 5.2 8 15.3 11.7 22.5 3.7 7.1 9.2 17.7 12.2 23.5 3.1 5.8 11.3 21.8 18.4 35.7 11.9 23.4 12.9 25.6 12.9 30.8 0 3-.4 6.3-.9 7.3-.5.9-11.5 22.8-24.4 48.7-30.2 60.7-31.1 62.3-35.7 66.6l-3.9 3.6-17.8.7c-9.8.3-32.5.9-50.5 1.3l-32.6.6-4.5-2.6c-5.1-3-24.7-23.4-36.2-37.7-7.7-9.5-25.6-35.7-31.4-46-3.3-5.9-17.1-33.6-17.1-34.4 0-.3-1.1-2.9-2.4-5.8-3.7-8-10.5-27.7-13.7-39.3-.6-2.2-1.5-5.1-1.9-6.5-.5-1.4-1.4-5-2.1-8-.6-3-1.5-6.8-2-8.4-2-6.4-.6-8.7 32.7-56.1 22.5-31.8 32.5-45.5 34.8-47.4 3.5-2.9 10.3-3.3 20.4-1zm361.4 152.5c4 1.3 10.6 7.6 49 46.1 47.8 48 45.7 45.8 47.6 49.1 2.2 3.9 1.7 6.5-3.8 18.7-1 2.2-3 6.9-4.5 10.5-3.3 8.1-4.7 11.2-7.4 17.4-1.2 2.7-3.1 7.2-4.2 10s-2.7 6.4-3.4 8.1c-.8 1.6-4.2 9.5-7.5 17.5-11.5 27-12.4 28.2-24.7 33-3.2 1.2-6.7 2.6-7.8 3-15 6.1-41.7 13.8-58.5 16.9-3.6.7-8.5 1.7-11 2.2-15.2 3.1-31.6 4.3-60.5 4.3-25.9 0-30.8-.3-36-1.8-7.1-2.1-7.5-2.6-31-30-9.3-10.9-17.5-20.4-18-21-.6-.6-7.5-8.7-15.4-18-13.6-15.9-14.4-17.1-14.3-21 0-3.3 5.6-15.2 28.7-61.1 15.7-31.3 29.4-57.8 30.3-58.8 2.2-2.4 4.8-3.8 9.2-4.8 4.1-1 37-6.5 48-8 4.1-.6 9.1-1.5 11.1-2s5-.9 6.7-.9c1.7 0 5.2-.4 7.9-1 5.4-1.1 24.3-4.1 40.8-6.5 6.1-.9 12.8-2 15-2.4 6.2-1.3 8.8-1.2 13.7.5z"/><path d="M83 524.5c-13.4 2.6-25.7 8.3-36.1 16.9-8.4 7-12.8 12.7-18.3 24-6.1 12.1-8.6 22.4-8.6 35.1 0 14.4 2.6 24.5 9.4 37.5 3.9 7.4 4.6 10.1 6.1 26 .3 3 1 8 1.5 11s1.4 8.6 2 12.5c2.4 15.1 6.1 32.5 11.1 52 .6 2.2 1.5 5.6 2 7.5.9 3.8 6.7 22.3 10.4 33.5 2.3 7 10.3 27.9 12.9 33.8.7 1.8 2.3 5.2 3.3 7.7 6.5 14.8 8.4 18.7 14.4 30.5 7.4 14.6 11.5 22.1 17.1 31.4 2.1 3.4 3.8 6.5 3.8 6.8 0 1.5 28.6 43.1 36.7 53.3 9.4 11.9 14.8 18.5 21.8 26.6 14.3 16.7 40.8 43.1 58 57.9 3.9 3.3 7.2 6.2 7.5 6.5.4.4 5.8 4.8 12.4 10 1 .8 3.3 2.7 5 4.1 1.7 1.4 4.7 3.6 6.6 4.9 1.9 1.3 3.7 2.7 4 3 .3.4 4.3 3.3 9 6.6 4.7 3.2 8.7 6.2 8.8 6.6.2.5.8.8 1.4.8.5 0 3.8 2 7.2 4.5 3.5 2.5 6.9 4.5 7.5 4.5.6 0 1.1.4 1.1 1 0 .5.4 1 1 1 .5 0 3.4 1.5 6.3 3.4 5 3.2 7.2 4.5 16.5 9.7 2 1.2 4.2 2.5 4.7 2.9 1.3 1 33.5 17.2 40 20 2.8 1.2 7.5 3.3 10.5 4.7 3 1.4 8.4 3.6 12 5 3.6 1.4 7.4 2.9 8.5 3.3 3.1 1.3 20.5 7.6 25 9 2.2.7 4.9 1.6 6 2.1 1.1.4 2.9 1 4 1.2 1.1.3 5.2 1.5 9 2.7 3.9 1.1 11.3 3.2 16.5 4.7 8.9 2.4 11.9 3 22.3 5.2 2.3.4 7.6 1.6 11.7 2.4 13.2 2.8 31.9 5.7 50 7.9 8.5 1 11.6 1.8 16 4.3 13.3 7.5 22 9.7 38.6 9.8 15.2 0 20-.9 31.9-6.3 13.8-6.2 24.7-14.7 31.5-24.5 10-14.6 13.9-27.5 13.9-45.5 0-17.5-2.9-27.6-12.4-43.2-3.7-6-18.3-19.9-23.6-22.5-18.1-8.8-24.9-10.5-40.9-10.5-13.1 0-17.8.8-30.3 5.6-5.6 2.1-8 2.5-13 2-9.1-.7-29.5-4-40.2-6.4-14.9-3.3-18.5-4.2-25-5.9-5.6-1.5-26.6-8.1-29-9.1-1.1-.4-3.6-1.3-5.5-2-3.8-1.3-4.3-1.5-14.5-5.5-16.4-6.6-43.9-20-56.6-27.5-4.5-2.8-8.4-5-8.6-5-.1 0-5.6-3.4-12-7.6-20.9-13.5-44.3-31.8-60-46.7-3.5-3.4-7.1-6.5-7.8-6.9-.7-.4-7.3-7.4-14.6-15.5-7.4-8.2-13.6-15-13.9-15.3-5.2-4.8-34-43.8-34-46.1 0-.5-.4-.9-1-.9-.5 0-1-.4-1-1 0-.5-2.5-4.8-5.5-9.5-3-4.6-5.5-8.7-5.5-8.9 0-.3-1.4-2.9-3.1-5.8-7.2-12.1-19.6-38.3-26-54.3-3.2-8.3-10.5-30-12.9-38.5-.7-2.5-1.6-5.6-2.1-7-1.8-5.8-6.8-27.9-8.9-40-.6-3.6-1.5-8.8-2-11.5-.5-2.8-1.2-8.6-1.6-13-.5-6.9-.3-8.8 1.6-13.5 5.2-12.8 5.5-14.8 5.5-31.5 0-16.9 0-16.5-6.1-32-7.5-19.2-26.1-35.6-47.4-41.8-13.4-3.9-23.6-4.6-36-2.2zM1089 524c-.8.5-2.9 1-4.7 1-1.7 0-3.5.4-3.8 1-.3.5-1.5 1-2.6 1-1 0-2.7.4-3.7.9-.9.5-3 1.5-4.7 2.2-3.9 1.8-10.9 6.2-11.3 7.1-.2.5-.8.8-1.3.8-2.7 0-18.9 17-18.9 19.8 0 .6-.4 1.2-.8 1.4-.5.1-1.5 2.3-2.4 4.8-.9 2.5-2.6 7.2-3.8 10.5-4.8 12.8-6 26.7-3.5 39.5 3.7 18.9 10.4 31.9 22.1 43 7.5 7.1 10.8 9.4 19.5 13.6 11.2 5.5 20.6 7.6 33.9 7.6 33.8 0 60.9-19.2 72.5-51.4 1.4-3.8 2.5-7.8 2.5-8.9 0-1.1.7-2.2 1.5-2.5 1.2-.5 1.5-3 1.5-13.9s-.3-13.4-1.5-13.9c-.8-.3-1.5-1.6-1.5-3 0-3.1-4.5-15.6-7.3-20.5-1.1-2-3.4-6.1-5.1-9.1-7.6-14-25.4-25.7-46.9-30.8-5.7-1.4-27.6-1.6-29.7-.2z"/></svg>